<?xml version="1.0" encoding="utf-8"?>
<!-- Generator: Adobe Illustrator 24.0.2, SVG Export Plug-In . SVG Version: 6.00 Build 0)  -->
<svg version="1.1" id="_x32_" xmlns="http://www.w3.org/2000/svg" xmlns:xlink="http://www.w3.org/1999/xlink" x="0px" y="0px"
	 viewBox="0 0 800 800" style="enable-background:new 0 0 800 800;" xml:space="preserve">
<style type="text/css">
	.st0{fill:#5A7EFF;}
</style>
<g>
	<path class="st0" d="M612,305.5l-0.3-0.5l-0.4-0.6L400,0L188.3,304.9l-0.4,0.6c-42.5,66.7-71.3,143.9-71.4,221.5
		c0,33.3,5.5,66.7,17.9,98.5c12.4,31.8,31.7,62,58.3,88.6h0C249.9,771.3,325.1,800,400,800c74.9,0,150.1-28.7,207.3-85.8l-24.8,24.8
		l24.8-24.8c26.6-26.6,46-56.8,58.3-88.6c12.4-31.9,17.9-65.2,17.9-98.5C683.3,449.4,654.5,372.3,612,305.5z M600.2,600.1
		c-8.9,22.9-22.6,44.4-42.5,64.4l24.8-24.8l-24.8,24.8c-43.6,43.6-100.5,65.3-157.7,65.3c-57.2,0-114.1-21.7-157.7-65.3l0,0
		c-20-20-33.6-41.5-42.6-64.5c-8.9-22.9-13.1-47.4-13.1-73.1c-0.2-59.5,23.2-125.5,60.2-183.4L400,123l153.2,220.7
		c36.9,57.9,60.3,123.9,60.2,183.4C613.3,552.7,609.2,577.2,600.2,600.1z"/>
	<path class="st0" d="M320.8,371.5c-36.6,40.7-94.9,147.7-58.3,222.3c40.9,83.3,96.5,33.8,70.5-18.9
		C282.9,473.2,320.8,371.5,320.8,371.5z"/>
</g>
</svg>
